<svg width="148" height="45" viewBox="0 0 148 45" fill="none" xmlns="http://www.w3.org/2000/svg">
<g clip-path="url(#clip0_169_117)">
<path fill-rule="evenodd" clip-rule="evenodd" d="M110.29 24.4588C110.201 29.3638 111.26 31.9616 115.304 31.9616C119.34 31.9616 119.92 27.5362 119.92 24.1685C119.92 20.7987 119.154 17.5273 114.913 17.5273C112.311 17.5273 110.39 19.5489 110.29 24.4588ZM102.11 44.9553V11.7542H110.39V13.1009C110.39 14.8974 111.114 14.1566 111.698 13.4565C111.796 13.3395 113.641 11.0808 117.797 11.0808C121.94 11.0808 128.386 13.967 128.386 24.1686C128.386 32.0595 124.541 37.8325 117.899 37.8325C114.24 37.8325 112.124 36.3917 111.64 35.8102C111.156 35.2367 110.483 35.1367 110.483 35.8102V44.9552L102.11 44.9553ZM38.1138 0.978516H47.0641V24.4588C47.0641 28.4978 45.3299 36.9688 32.9178 36.9688C20.5042 36.9688 19.1575 29.0734 19.1575 24.65V20.3201H27.8189V24.5522C27.8189 27.1502 29.5516 29.5549 32.8216 29.5549C36.0929 29.5549 38.1138 27.7273 38.1138 24.65V0.978516ZM65.7819 20.8972C65.7819 18.4888 64.4374 16.1797 61.3579 16.1797C58.3747 16.1797 57.3153 18.2947 57.3153 20.8972H65.7819ZM60.4948 10.7919C67.5236 10.7919 73.6796 13.4855 73.6796 25.8997H57.033C57.033 29.8453 58.6673 31.4816 61.5542 31.4816C64.4418 31.4816 65.4034 29.1703 65.4034 29.1703H73.5855C73.5855 32.7321 68.677 37.5437 61.2653 37.4481C52.7994 37.4481 48.6606 31.1928 48.6606 24.7449C48.6606 18.2947 52.3149 10.7919 60.4948 10.7919ZM92.3937 20.8972C92.3937 18.4888 91.0476 16.1797 87.9681 16.1797C84.9865 16.1797 83.9248 18.2947 83.9248 20.8972H92.3937ZM87.1065 10.7919C94.1346 10.7919 100.289 13.4855 100.289 25.8997H83.6433C83.6433 29.8453 85.279 31.4816 88.1681 31.4816C91.0528 31.4816 92.0158 29.1703 92.0158 29.1703H100.198C100.198 32.7321 95.2886 37.5437 87.8792 37.4481C79.4088 37.4481 75.27 31.1928 75.27 24.7449C75.27 18.2947 78.9288 10.7919 87.1065 10.7919Z" fill="#6C6C6C"/>
</g>
<defs>
<clipPath id="clip0_169_117">
<rect width="146.589" height="43.9768" fill="white" transform="translate(0.589355 0.978516)"/>
</clipPath>
</defs>
</svg>
