<svg width="147" height="45" viewBox="0 0 147 45" fill="none" xmlns="http://www.w3.org/2000/svg">
<g clip-path="url(#clip0_169_114)">
<path d="M136.68 11.5357C139.457 11.5357 141.707 10.7039 141.707 9.67752C141.707 8.65184 139.457 7.81934 136.68 7.81934C133.904 7.81934 131.653 8.65112 131.653 9.67752C131.653 10.7032 133.904 11.5357 136.68 11.5357Z" fill="#6C6C6C"/>
<path fill-rule="evenodd" clip-rule="evenodd" d="M106.429 32.6029V20.8771C106.429 19.0788 106.35 17.2033 104.445 15.8741C102.636 14.6105 99.7514 14.6192 98.4489 14.6232C98.3814 14.6234 98.3181 14.6236 98.2594 14.6236C97.0696 14.6236 93.1045 14.6236 91.2792 16.6562C89.66 18.4607 89.7278 20.2032 89.7635 21.1183C89.768 21.234 89.7719 21.3365 89.7719 21.4242H94.9678C94.9678 21.4242 95.3232 18.7667 96.0377 18.0632C96.7559 17.3554 98.6558 16.5776 100.123 17.8282C100.662 18.2895 100.875 18.8834 100.875 19.548V22.909C100.875 23.2226 100.558 23.6911 100.162 23.6911C100.162 23.6911 92.9436 23.8475 91.6755 24.7859C91.6104 24.8341 91.5456 24.8815 91.4814 24.9285L91.4804 24.9293C90.2956 25.7959 89.2959 26.5271 89.2959 29.7889C89.2959 33.2278 90.1683 34.5569 91.2002 35.2611C91.3153 35.3397 91.4235 35.4192 91.5314 35.4985C92.39 36.1295 93.2298 36.7467 97.3862 36.7467H108.49V34.4791C107.54 34.4791 106.429 33.6978 106.429 32.6029ZM100.322 34.4005C100.559 34.4005 100.877 34.1274 100.877 33.932V27.5595C100.877 26.895 100.639 25.8794 99.4098 25.8794L99.3166 25.8793C98.0315 25.8774 95.0878 25.873 95.0878 28.7323V31.7423C95.0878 32.7593 95.6421 34.4005 97.5859 34.4005H100.322Z" fill="#6C6C6C"/>
<path fill-rule="evenodd" clip-rule="evenodd" d="M42.8195 30.1796H37.2675V32.2908C37.2675 33.15 37.1088 34.9491 34.4915 34.9491C31.8742 34.9491 31.0814 33.2285 31.0814 31.978V27.5221C31.0814 27.1314 31.3988 26.5836 31.9539 26.5836H42.8195V20.8771C42.8195 18.2974 42.2645 17.5154 41.1537 16.4212C40.0435 15.3263 36.1567 15.0142 34.4118 15.0142C29.9706 15.0142 28.5424 15.6392 27.2736 16.6555C26.0048 17.6718 25.5287 19.7822 25.5287 21.3456V30.1789C25.5287 32.5236 26.0047 34.1655 27.5112 35.6511C29.0177 37.1366 33.6183 37.1366 34.5705 37.1366L34.6946 37.1369C35.7733 37.1401 38.7859 37.1491 40.9949 35.5733C43.2956 33.932 42.8195 30.1796 42.8195 30.1796ZM34.2538 17.3597C31.4778 17.3597 31.0814 19.2359 31.0814 20.4865V23.379C31.0814 23.8475 31.5575 24.2381 32.0329 24.2381H36.3161C36.8711 24.2381 37.2675 23.7689 37.2675 23.3004V20.4865C37.2675 19.3923 37.0298 17.3597 34.2538 17.3597Z" fill="#6C6C6C"/>
<path d="M54.0662 15.6392C54.0662 16.2648 54.8589 16.8897 55.335 17.0461C55.8901 16.6555 58.8248 15.0142 61.1247 15.0142C63.4247 15.0142 64.6145 16.1862 64.6145 17.9846V26.5836H59.0632V19.9394C59.0632 19.0795 58.8248 18.4538 58.0321 18.376C57.2386 18.2981 55.1763 19.9394 54.6213 20.7214V32.6036C54.6213 33.6985 55.7321 34.4798 56.6836 34.4798V36.7474H47.0077V34.402C47.9591 34.402 48.9903 34.0892 49.07 32.6822V19.4694C49.07 19.0788 48.4352 17.9839 47.0077 17.9839V15.6392H54.0662Z" fill="#6C6C6C"/>
<path d="M76.7489 17.0461C76.2736 16.8897 75.4809 16.2648 75.4809 15.6392H68.4224V17.9839C69.8498 17.9839 70.4847 19.0788 70.4847 19.4694V32.6822C70.4049 34.0892 69.3738 34.402 68.4224 34.402V36.7474H78.0982V34.4798C77.1461 34.4798 76.0359 33.6985 76.0359 32.6036V20.7214C76.5902 19.9394 78.6525 18.2981 79.4452 18.376C80.2394 18.4538 80.4764 19.0795 80.4764 19.9394V26.5836H86.0284V17.9846C86.0284 16.1862 84.8393 15.0142 82.5394 15.0142C80.2395 15.0142 77.3047 16.6555 76.7489 17.0461Z" fill="#6C6C6C"/>
<path d="M132.207 15.6392H141.882V17.9846C140.851 17.9846 139.82 18.6881 139.82 19.6258V32.6029C139.82 33.6978 140.931 34.4791 141.882 34.4791V36.7467H132.207V34.4013C133.158 34.4013 134.19 34.0884 134.268 32.6815V19.4701C134.268 19.0788 133.634 17.9846 132.207 17.9846V15.6392Z" fill="#6C6C6C"/>
<path d="M119.674 17.0461C119.199 16.8897 118.405 16.2648 118.405 15.6392H111.345V17.9839C112.774 17.9839 113.408 19.0788 113.408 19.4694V32.6822C113.329 34.0892 112.298 34.402 111.345 34.402V36.7474H121.022V34.4798C120.07 34.4798 118.96 33.6985 118.96 32.6036V20.7214C119.515 19.9394 121.578 18.2981 122.37 18.376C123.163 18.4538 123.402 19.0795 123.402 19.9394V26.5836H128.954V17.9846C128.954 16.1862 127.764 15.0142 125.465 15.0142C123.163 15.0142 120.23 16.6555 119.674 17.0461Z" fill="#6C6C6C"/>
<path d="M5.06543 33.932V36.746H18.9462V33.932H17.518C15.4557 33.932 14.5833 32.6036 14.5833 31.8994V25.333C14.5833 24.0817 15.3768 23.7696 16.3289 23.8475C17.5144 23.9448 18.3905 25.2545 18.3905 26.0365H20.7701V17.359H18.3905C18.3905 19.9387 16.7253 20.0165 16.2492 20.0165C15.7731 20.0165 14.8217 19.7822 14.5833 19.1573V13.8415C14.5833 11.8089 15.9318 11.5746 16.9629 11.5746H129.224V7.97863H7.2074L5.14515 11.5746H6.96902C8.95157 11.5746 9.03127 13.9979 9.03127 15.0142V31.8994C9.03127 33.7756 7.44436 33.932 6.65163 33.932H5.06543Z" fill="#6C6C6C"/>
</g>
<defs>
<clipPath id="clip0_169_114">
<rect width="146.589" height="43.9768" fill="white" transform="translate(0.178955 0.978516)"/>
</clipPath>
</defs>
</svg>
