<svg width="147" height="45" viewBox="0 0 147 45" fill="none" xmlns="http://www.w3.org/2000/svg">
<g clip-path="url(#clip0_169_108)">
<path d="M91.8003 26.1355C93.1493 24.4856 94.7992 23.3609 96.1122 23.5107C97.7222 23.6977 97.8732 25.273 97.0859 26.7345L97.4985 26.8476C97.4985 26.8476 96.224 28.9846 94.9122 30.297C92.5881 32.6584 91.0881 31.871 90.7507 31.6088C90.4133 31.3466 90.151 30.4095 90.3001 29.4718C90.4132 28.5347 91.1254 26.9601 91.8003 26.1355Z" fill="#6C6C6C"/>
<path fill-rule="evenodd" clip-rule="evenodd" d="M20.0435 22.9856C20.0441 33.0337 44.2248 41.1691 74.1418 41.1691C104.021 41.1691 128.277 33.0337 128.277 22.9856C128.277 12.976 104.021 4.84055 74.1418 4.84055C44.2248 4.84055 20.0435 12.976 20.0435 22.9856ZM71.7538 11.5878C70.8043 11.2705 69.968 10.991 69.2844 10.8056C69.3925 10.9077 69.4678 11.0738 69.3812 11.2895C69.3433 11.3647 68.9686 11.7767 68.8194 11.8891C68.7117 11.9861 68.5667 12.1032 68.3893 12.2466C67.332 13.1008 65.1211 14.8872 62.7458 18.8998C64.9953 18.7874 67.6194 18.3375 67.6194 18.3375C67.6194 18.3375 67.4697 17.8503 67.4697 17.4377C67.5822 15.8258 68.5192 14.8508 69.7192 15.0384C70.3946 15.1509 70.844 15.7133 70.844 16.3129C70.844 16.9505 70.3568 17.8876 69.869 18.3375C69.5309 18.5991 69.1556 18.8619 68.7063 19.0869C68.7063 19.4995 69.2681 19.8369 69.7559 19.8748C69.7245 19.9897 69.7048 20.0872 69.6886 20.1672C69.6468 20.374 69.6284 20.4641 69.4936 20.4372C68.3688 20.4372 67.919 19.3497 67.919 19.3497C66.4202 19.612 64.958 19.7996 61.9958 20.0998C54.5352 32.1718 52.2111 34.1591 47.637 34.1591C44.3752 34.1591 41.4888 32.022 41.4136 28.1979C41.3757 25.8739 43.2504 23.0241 46.7371 22.1616C47.1497 22.1616 47.2995 22.312 47.2995 22.5369C47.2995 22.6873 47.1497 22.8743 46.8117 23.0241C45.7994 23.3994 44.0377 25.3861 44.0377 27.2236C44.0377 28.6105 44.9003 30.1479 46.3618 30.4847C46.692 30.5752 46.9983 30.569 47.2995 30.5629C47.3747 30.5614 47.4496 30.5599 47.5245 30.5599C51.1609 30.5599 55.2473 26.4735 59.6711 20.2502C58.9589 20.2874 55.9221 20.6255 55.1721 21.4874C54.8353 21.7496 54.6104 21.5998 54.5352 21.2997C54.5352 21.2245 54.6477 20.9623 54.7608 20.8119C55.8517 19.5842 58.9281 19.2254 60.124 19.0859C60.2429 19.0721 60.3432 19.0604 60.4211 19.0502C63.6357 14.1211 67.7347 10.9614 68.8934 10.7062C68.8685 10.7004 68.8438 10.6947 68.8194 10.6892C65.9324 10.0144 63.3082 9.452 61.2458 9.452C54.0101 9.452 50.7856 12.564 50.936 15.4131C51.0111 16.5752 51.9476 17.3252 53.3352 17.0623C54.8353 16.8001 56.9344 15.3752 57.4595 14.138C57.5719 13.8758 57.8721 13.8379 57.9846 13.9131C58.2096 14.1007 58.1343 14.363 58.1343 14.363C57.9467 15.8251 55.6971 19.8742 51.7985 19.8742C49.6242 19.8742 48.162 17.8497 48.1993 15.8624C48.2366 12.1508 52.0234 8.40182 61.3581 8.40182C63.1198 8.40182 65.1072 8.55158 67.2821 8.92691C69.7932 9.37681 76.0539 10.4264 81.1525 10.5016C81.456 10.5016 81.7732 10.5035 82.1 10.5055C83.7927 10.5161 85.7426 10.5282 87.3765 10.2766C88.3618 10.1154 88.7734 10.014 89.0248 9.9521C89.2994 9.88448 89.3827 9.86399 89.8135 9.86399C90.5629 9.86399 90.5629 10.1641 90.5629 10.4643C90.5629 11.6642 86.3635 13.951 82.8016 13.951C78.8252 13.951 74.7329 12.5834 71.7538 11.5878ZM88.2146 26.712C88.2482 26.6816 88.2813 26.6516 88.3141 26.622C88.845 26.1224 89.327 25.6178 89.7907 25.1324C91.5537 23.2871 93.0521 21.7188 95.9617 21.7484C97.9462 21.7818 98.6023 23.2042 98.9868 24.0379C99.0308 24.1333 99.0713 24.221 99.1098 24.298L103.946 16.1253H106.908L98.8854 30.3343C98.8575 30.3899 98.822 30.4544 98.7827 30.5257C98.6101 30.8386 98.3668 31.2796 98.3976 31.6461C98.4741 32.3582 99.3733 32.1712 99.0359 32.1712C100.648 32.096 103.609 29.0219 104.322 28.2725L104.331 28.2605C104.482 28.0703 104.737 27.7474 104.883 27.7474C105.034 27.7474 105.334 27.8972 105.334 28.1221C105.334 28.2725 104.996 28.8342 104.734 29.1717C103.234 31.0464 100.76 33.9329 97.9484 34.0081C96.5614 34.0081 96.0357 33.4457 95.8487 32.3588C95.2117 32.9206 93.0369 33.8956 90.8253 33.8956C88.9878 33.8583 88.2377 32.7708 87.8637 31.909C87.5262 31.1968 87.3758 30.1473 87.6381 29.0977C86.6258 29.6228 85.6887 29.6974 84.339 29.6601C82.7637 29.6222 81.7888 28.91 81.3022 27.0726C80.8912 27.8261 80.5702 28.4134 80.2975 28.9121C79.3762 30.5974 79.0075 31.2718 77.5906 33.9335H74.404L78.4903 26.998C79.016 26.0603 79.2783 25.3109 79.4647 24.5242C79.5778 24.0737 79.2403 23.661 78.7525 23.6244C78.228 23.6244 77.3669 24.1495 76.541 24.9362C76.541 24.9362 74.4419 27.1857 72.9046 29.4724C71.4418 31.6473 68.9307 34.1212 66.194 34.1212C64.2067 34.1212 62.4071 33.0343 62.0324 30.9346C62.0324 30.9346 61.8447 31.4218 60.0824 32.434C60.0582 32.4461 60.0281 32.4621 59.9941 32.4802C59.8183 32.5736 59.5398 32.7215 59.4461 32.659C59.108 32.3595 58.921 31.9841 58.8831 31.7213C58.9876 31.7565 59.1889 31.5972 59.787 31.1243C59.8332 31.0878 59.8817 31.0494 59.9327 31.0092C61.3197 29.9596 61.6198 29.1338 61.6198 29.1338C61.8909 28.5605 62.3332 27.7198 62.7103 27.003C62.8017 26.8294 62.8891 26.6631 62.9695 26.5096C64.0948 24.2601 66.0436 21.9733 69.2302 21.8608C69.7553 21.8608 69.905 22.0858 70.0175 22.2734C70.317 22.4984 70.2052 22.9483 70.2052 22.9483C67.9557 23.2857 66.4189 24.5975 65.4812 25.8726C64.9195 26.6972 64.3191 28.0469 64.2067 29.0213C63.9817 30.7084 64.769 31.8325 65.9311 32.0954C68.1054 32.4328 69.905 30.8582 71.3299 28.4216C71.7052 27.7841 71.9675 26.1342 71.9675 25.2344C71.9675 24.3346 71.4796 23.3976 71.1049 23.0222C71.1049 22.3853 71.5169 21.9727 72.0041 21.9727C72.1539 21.9727 72.3042 21.9727 72.454 22.1224C73.204 22.8725 73.6166 24.2974 73.6166 25.3842C73.6166 25.7595 73.6167 26.1342 73.5415 26.5096C73.6058 26.4314 73.6708 26.3523 73.7365 26.2724C75.2777 24.3985 77.1656 22.1032 78.6407 21.6359C78.9403 21.4861 79.2404 21.4861 79.5399 21.4861C82.3517 21.4109 81.9771 23.9606 81.9771 23.9606C83.4759 22.2362 84.5261 21.5986 85.9131 21.6732C87.4131 21.7484 87.9375 22.7985 87.9375 23.6231C87.8996 24.5975 87.1888 25.7222 85.9522 25.7595C84.8635 25.7595 84.2265 25.2344 83.8891 24.2601C83.177 24.5229 82.8402 25.0101 82.6898 25.9845C82.4643 27.2217 83.4019 28.1967 84.6012 28.1967C86.5733 28.1973 87.483 27.3741 88.2146 26.712Z" fill="#6C6C6C"/>
<path fill-rule="evenodd" clip-rule="evenodd" d="M15.9944 22.9856C15.9944 35.1328 42.0133 44.9553 74.1418 44.9553C106.233 44.9553 132.252 35.1322 132.252 22.9856C132.252 10.839 106.233 0.978516 74.1418 0.978516C42.0133 0.978516 15.9944 10.839 15.9944 22.9856ZM130.039 22.9856C130.039 33.9329 105.034 42.7059 74.1418 42.7059C43.3251 42.7059 18.2818 33.9329 18.2818 22.9856C18.2818 12.0762 43.3251 3.19072 74.1418 3.19072C105.034 3.19072 130.039 12.0762 130.039 22.9856Z" fill="#6C6C6C"/>
</g>
<defs>
<clipPath id="clip0_169_108">
<rect width="146.589" height="43.9768" fill="white" transform="translate(0.35791 0.978516)"/>
</clipPath>
</defs>
</svg>
