<svg width="148" height="45" viewBox="0 0 148 45" fill="none" xmlns="http://www.w3.org/2000/svg">
<g clip-path="url(#clip0_169_111)">
<path d="M4.6093 17.5236C2.6625 17.1027 1.18924 15.419 0.768311 13.7352L24.814 13.6826V13.7352C24.3931 15.419 22.9725 16.9974 20.973 17.5236H14.9748L14.6591 17.6288V32.7298H10.9233V17.6288L10.6076 17.5236H4.6093Z" fill="#6C6C6C"/>
<path d="M37.7577 17.5236H51.9641C53.9636 17.1553 55.4368 15.3663 55.8051 13.6826H33.8641C34.285 15.3663 35.7583 17.1027 37.7577 17.5236Z" fill="#6C6C6C"/>
<path d="M143.517 17.5236H129.31C127.363 17.1027 125.89 15.3663 125.469 13.6826H147.358C146.937 15.3663 145.516 17.1553 143.517 17.5236Z" fill="#6C6C6C"/>
<path d="M126.048 32.7824V21.2594H146.884V32.7824H143.201V25.1004H129.731V32.7824H126.048Z" fill="#6C6C6C"/>
<path d="M114.841 32.7824C116.682 31.9931 117.682 30.6251 118.103 29.0466H101.529V13.7352H97.793V32.7824H114.841Z" fill="#6C6C6C"/>
<path d="M83.3235 17.471H70.1694L70.222 21.2594H87.2697V32.7824H65.434C66.3284 30.9408 68.1174 29.5202 70.222 28.9414H83.5866V24.9951H66.5389V13.7352H87.375C86.9541 15.3664 85.323 16.8922 83.3235 17.471Z" fill="#6C6C6C"/>
<path d="M51.9641 25.0478H37.7577C35.7583 24.6268 34.285 22.8905 33.8641 21.2068H55.8051C55.4368 22.8905 53.9636 24.6795 51.9641 25.0478Z" fill="#6C6C6C"/>
<path d="M37.7577 32.7824H51.9641C53.9636 32.4141 55.4368 30.6251 55.8051 28.9414H33.8641C34.285 30.6251 35.7583 32.4141 37.7577 32.7824Z" fill="#6C6C6C"/>
</g>
<defs>
<clipPath id="clip0_169_111">
<rect width="146.589" height="43.9768" fill="white" transform="translate(0.768311 0.978516)"/>
</clipPath>
</defs>
</svg>
