<svg width="147" height="45" viewBox="0 0 147 45" fill="none" xmlns="http://www.w3.org/2000/svg">
<g clip-path="url(#clip0_169_120)">
<path fill-rule="evenodd" clip-rule="evenodd" d="M58.6303 22.4851C61.0358 25.9161 63.4545 29.3378 65.8864 32.7502C66.0051 32.9046 66.0528 33.4995 65.565 33.4995L60.4499 33.5352C59.9143 33.5352 59.4028 33.1068 59.1413 32.7975L55.9533 28.8718L52.9439 25.1487L52.9323 32.7261C52.9323 33.0474 52.6471 33.5232 52.3137 33.5352L47.6034 33.5589C47.27 33.5589 46.7942 33.0358 46.7942 32.6908V14.5025C46.7942 14.3123 45.9382 14.1695 45.9498 13.4795C45.9614 12.778 46.3064 12.6351 46.6871 12.6351H52.1834C52.4807 12.6351 52.9685 12.9328 52.9685 13.3965L52.9448 20.2009L55.9543 16.2636L58.1188 13.4443C58.4281 13.052 59.1418 12.5999 59.4988 12.5999L64.2926 12.6356C64.792 12.6356 65.0777 13.0399 64.8398 13.397L58.6303 22.4851ZM76.2826 12.6361C76.699 12.6361 77.0913 12.9333 77.0913 13.397V32.727C77.0913 33.1796 76.949 33.5005 76.4138 33.5005L73.5115 33.5241L71.5607 33.5362C71.1443 33.5362 70.8466 33.2148 70.8466 32.727V14.3726C70.8466 14.3606 70.0732 14.1584 69.9544 13.4211C70.0616 13.0168 70.2044 12.6361 70.8466 12.6361H76.2826ZM92.829 3.26227C107.164 6.85459 117.049 14.349 117.048 22.973C117.048 31.5974 107.163 39.0913 92.8285 42.6837C87.0475 44.1467 80.5413 44.9553 73.6655 44.9553H73.5111C67.2775 44.9553 61.33 44.2658 55.9533 43.0403C40.8584 39.5908 30.2952 31.883 30.2952 22.973C30.2952 14.0633 40.8584 6.35517 55.9538 2.90521C61.3305 1.6801 67.2784 0.99011 73.5115 0.99011C73.5704 0.99011 73.6182 0.978516 73.6659 0.978516C80.5417 0.978516 87.048 1.79928 92.829 3.26227ZM92.829 37.8899C105.355 35.0112 113.884 29.3962 113.884 22.973C113.884 16.5497 105.355 10.9352 92.829 8.05651C87.1315 6.73634 80.6006 5.98699 73.6659 5.98699H73.5115C67.2306 5.99858 61.2711 6.62922 55.9538 7.73562C42.6427 10.5072 33.4595 16.3002 33.4595 22.9734C33.4595 29.6466 42.6427 35.4397 55.9538 38.2112C61.2711 39.3176 67.2306 39.9483 73.5115 39.9483C73.5704 39.9483 73.6182 39.9599 73.6659 39.9599C80.6006 39.9599 87.1315 39.2105 92.829 37.8899ZM96.5757 13.4211L103.143 32.7748C103.226 33.0126 102.916 33.5362 102.654 33.5362L98.1579 33.5005C97.8611 33.5005 97.3024 33.0604 97.2189 32.7868L93.2097 20.487C93.1745 20.3679 92.9959 20.3085 92.8295 20.3085C92.7228 20.3085 92.6157 20.3563 92.5795 20.4393C91.9021 22.4852 91.2116 24.531 90.5216 26.5773L88.4757 32.7149C88.3209 33.1791 87.7853 33.5 87.405 33.5L83.087 33.5357C82.7063 33.5357 82.4332 32.9649 82.5399 32.6556L88.7373 14.3726C88.7971 14.2182 87.7023 14.2535 87.7139 13.2069C87.7139 12.8503 88.0709 12.6361 88.3325 12.6361H95.6836C96.0884 12.6361 96.3981 13.0163 96.5757 13.4211Z" fill="#6C6C6C"/>
</g>
<defs>
<clipPath id="clip0_169_120">
<rect width="146.589" height="43.9768" fill="white" transform="translate(0 0.978516)"/>
</clipPath>
</defs>
</svg>
