<svg width="175" height="36" viewBox="0 0 175 36" fill="none" xmlns="http://www.w3.org/2000/svg">
<mask id="mask0_56_266" style="mask-type:luminance" maskUnits="userSpaceOnUse" x="0" y="0" width="175" height="36">
<path d="M174.94 0H0V35.3875H174.94V0Z" fill="white"/>
</mask>
<g mask="url(#mask0_56_266)">
<path d="M62.8727 23.1152H72.7184V28.1746H57.4099V3.21729H62.8727V23.112V23.1152Z" fill="#49D076"/>
<path d="M91.0635 11.3132V28.1748H86.1755L85.8389 26.2851C84.7939 27.6667 82.7009 28.6131 80.681 28.6131C76.838 28.6131 74.475 26.0501 74.475 21.9022V11.3132H79.6678V20.0124C79.6678 22.7787 80.6111 23.992 82.7359 23.992C84.8606 23.992 85.8738 22.8454 85.8738 20.0791V11.3132H91.0666H91.0635Z" fill="#49D076"/>
<path d="M94.1313 28.1713V11.3097H98.9875L99.3242 13.0629C100.166 11.8814 101.821 10.7698 104.247 10.7698C106.674 10.7698 108.395 11.9513 109.373 13.7362C110.25 11.9481 112.241 10.7698 114.668 10.7698C119.019 10.7698 121.175 13.2979 121.175 17.1441V28.1713H115.983V18.5955C115.983 16.4708 114.871 15.4608 113.216 15.4608C111.733 15.4608 110.25 16.2707 110.25 19.1355V28.1713H105.057V18.5955C105.057 16.5057 103.977 15.4926 102.326 15.4926C100.842 15.4926 99.3242 16.3024 99.3242 19.1355V28.1713H94.1313Z" fill="#49D076"/>
<path d="M123.634 5.71372C123.634 4.06217 124.949 2.77905 126.6 2.77905C128.252 2.77905 129.535 4.059 129.535 5.71372C129.535 7.36844 128.22 8.68014 126.6 8.68014C124.98 8.68014 123.634 7.36526 123.634 5.71372ZM124.037 11.3131H129.23V28.1747H124.037V11.3131Z" fill="#49D076"/>
<path d="M132.298 28.1713V11.3097H137.186L137.523 13.0629C138.567 11.6114 140.489 10.7698 142.68 10.7698C146.692 10.7698 149.02 13.3328 149.02 17.7507V28.1713H143.827V18.9989C143.827 16.8741 142.649 15.4926 140.861 15.4926C138.803 15.4926 137.488 16.8424 137.488 18.9322V28.1713H132.295H132.298Z" fill="#49D076"/>
<path d="M151.183 23.2138C151.183 20.1108 153.374 18.1893 157.42 17.8875L162.14 17.5159V17.246C162.14 15.5944 161.13 14.7178 159.275 14.7178C157.084 14.7178 155.902 15.5595 155.902 17.0776H151.586C151.586 13.2664 154.721 10.7732 159.545 10.7732C164.37 10.7732 167.199 13.5046 167.199 18.3258V28.1716H162.613L162.277 25.9452C161.737 27.4951 159.51 28.6099 156.982 28.6099C153.409 28.6099 151.183 26.52 151.183 23.2138ZM162.175 21.8671V20.9556L159.545 21.1906C157.287 21.3939 156.477 21.8989 156.477 22.9787C156.477 24.192 157.22 24.7668 158.805 24.7668C160.793 24.7668 162.178 23.7886 162.178 21.8671H162.175Z" fill="#49D076"/>
<path d="M40.3919 13.9995L31.0071 23.3843L24.2693 16.6465L33.6541 7.26174L28.3601 1.96777L18.2454 12.0825C17.0262 13.3017 16.3551 14.922 16.3551 16.6465C16.3551 18.3711 17.0262 19.9913 18.2454 21.2106L26.4431 29.4082C27.6623 30.6274 29.2826 31.2985 31.0071 31.2985C32.7317 31.2985 34.352 30.6274 35.5712 29.4082L45.6859 19.2935L40.3919 13.9995Z" fill="#49D076"/>
<path d="M15.3819 8.68974L19.946 4.1257L19.2161 3.39577C16.7001 0.879796 12.6039 0.879796 10.088 3.39577L1.89032 11.5934C0.671105 12.8126 0 14.4329 0 16.1575C0 17.882 0.671105 19.5023 1.89032 20.7215L12.005 30.8362L17.299 25.5422L7.91422 16.1575L15.3819 8.68974Z" fill="#49D076"/>
</g>
</svg>
